<?xml version="1.0" encoding="UTF-8" standalone="no"?>
<!DOCTYPE svg PUBLIC "-//W3C//DTD SVG 1.1//EN"
 "http://www.w3.org/Graphics/SVG/1.1/DTD/svg11.dtd">
<!-- Generated by graphviz version 14.1.1 (20251213.1925)
 -->
<!-- Title: OnRopeProArchitecture Pages: 1 -->
<svg width="4613pt" height="1498pt"
 viewBox="0.00 0.00 4613.00 1498.00" xmlns="http://www.w3.org/2000/svg" xmlns:xlink="http://www.w3.org/1999/xlink">
<g id="graph0" class="graph" transform="scale(2.08333 2.08333) rotate(0) translate(36 682.8)">
<title>OnRopeProArchitecture</title>
<polygon fill="#0f172a" stroke="none" points="-36,36 -36,-682.8 2178.4,-682.8 2178.4,36 -36,36"/>
<!-- CLIENTS -->
<g id="node1" class="node">
<title>CLIENTS</title>
<path fill="#ec4899" stroke="black" stroke-width="0" d="M1102.7,-646.8C1102.7,-646.8 989.95,-646.8 989.95,-646.8 983.95,-646.8 977.95,-640.8 977.95,-634.8 977.95,-634.8 977.95,-584.4 977.95,-584.4 977.95,-578.4 983.95,-572.4 989.95,-572.4 989.95,-572.4 1102.7,-572.4 1102.7,-572.4 1108.7,-572.4 1114.7,-578.4 1114.7,-584.4 1114.7,-584.4 1114.7,-634.8 1114.7,-634.8 1114.7,-640.8 1108.7,-646.8 1102.7,-646.8"/>
<text xml:space="preserve" text-anchor="middle" x="1046.32" y="-626.1" font-family="Arial" font-size="11.00" fill="white">CLIENTS</text>
<text xml:space="preserve" text-anchor="middle" x="1046.32" y="-612.9" font-family="Arial" font-size="11.00" fill="white">Companies</text>
<text xml:space="preserve" text-anchor="middle" x="1046.32" y="-599.7" font-family="Arial" font-size="11.00" fill="white">Contacts</text>
<text xml:space="preserve" text-anchor="middle" x="1046.32" y="-586.5" font-family="Arial" font-size="11.00" fill="white">Property Managers</text>
</g>
<!-- PROJECTS -->
<g id="node7" class="node">
<title>PROJECTS</title>
<path fill="#3b82f6" stroke="black" stroke-width="0" d="M1104.22,-354C1104.22,-354 988.43,-354 988.43,-354 982.43,-354 976.43,-348 976.43,-342 976.43,-342 976.43,-291.6 976.43,-291.6 976.43,-285.6 982.43,-279.6 988.43,-279.6 988.43,-279.6 1104.22,-279.6 1104.22,-279.6 1110.22,-279.6 1116.22,-285.6 1116.22,-291.6 1116.22,-291.6 1116.22,-342 1116.22,-342 1116.22,-348 1110.22,-354 1104.22,-354"/>
<text xml:space="preserve" text-anchor="middle" x="1046.32" y="-333.3" font-family="Arial" font-size="11.00" fill="white">PROJECTS</text>
<text xml:space="preserve" text-anchor="middle" x="1046.32" y="-320.1" font-family="Arial" font-size="11.00" fill="white">10 Job Types</text>
<text xml:space="preserve" text-anchor="middle" x="1046.32" y="-306.9" font-family="Arial" font-size="11.00" fill="white">Progress Tracking</text>
<text xml:space="preserve" text-anchor="middle" x="1046.32" y="-293.7" font-family="Arial" font-size="11.00" fill="white">Documents &amp; Plans</text>
</g>
<!-- CLIENTS&#45;&gt;PROJECTS -->
<g id="edge1" class="edge">
<title>CLIENTS&#45;&gt;PROJECTS</title>
<path fill="none" stroke="#ec4899" stroke-width="1.5" d="M1046.32,-572.52C1046.32,-572.52 1046.32,-362.85 1046.32,-362.85"/>
<polygon fill="#ec4899" stroke="#ec4899" stroke-width="1.5" points="1048.77,-362.85 1046.32,-355.85 1043.87,-362.85 1048.77,-362.85"/>
</g>
<!-- BUILDINGS -->
<g id="node2" class="node">
<title>BUILDINGS</title>
<path fill="#ec4899" stroke="black" stroke-width="0" d="M1386.57,-646.8C1386.57,-646.8 1308.08,-646.8 1308.08,-646.8 1302.08,-646.8 1296.08,-640.8 1296.08,-634.8 1296.08,-634.8 1296.08,-584.4 1296.08,-584.4 1296.08,-578.4 1302.08,-572.4 1308.08,-572.4 1308.08,-572.4 1386.57,-572.4 1386.57,-572.4 1392.57,-572.4 1398.57,-578.4 1398.57,-584.4 1398.57,-584.4 1398.57,-634.8 1398.57,-634.8 1398.57,-640.8 1392.57,-646.8 1386.57,-646.8"/>
<text xml:space="preserve" text-anchor="middle" x="1347.32" y="-626.1" font-family="Arial" font-size="11.00" fill="white">BUILDINGS</text>
<text xml:space="preserve" text-anchor="middle" x="1347.32" y="-612.9" font-family="Arial" font-size="11.00" fill="white">Addresses</text>
<text xml:space="preserve" text-anchor="middle" x="1347.32" y="-599.7" font-family="Arial" font-size="11.00" fill="white">Anchors</text>
<text xml:space="preserve" text-anchor="middle" x="1347.32" y="-586.5" font-family="Arial" font-size="11.00" fill="white">Instructions</text>
</g>
<!-- BUILDINGS&#45;&gt;PROJECTS -->
<g id="edge2" class="edge">
<title>BUILDINGS&#45;&gt;PROJECTS</title>
<path fill="none" stroke="#ec4899" stroke-width="1.5" d="M1310.33,-572.54C1310.33,-493.81 1310.33,-317 1310.33,-317 1310.33,-317 1125.3,-317 1125.3,-317"/>
<polygon fill="#ec4899" stroke="#ec4899" stroke-width="1.5" points="1125.3,-314.55 1118.3,-317 1125.3,-319.45 1125.3,-314.55"/>
</g>
<!-- GLOBAL_DB -->
<g id="node28" class="node">
<title>GLOBAL_DB</title>
<path fill="#64748b" stroke="black" stroke-width="0" d="M1426.07,-61.2C1426.07,-61.2 1336.58,-61.2 1336.58,-61.2 1330.58,-61.2 1324.58,-55.2 1324.58,-49.2 1324.58,-49.2 1324.58,-12 1324.58,-12 1324.58,-6 1330.58,0 1336.58,0 1336.58,0 1426.07,0 1426.07,0 1432.07,0 1438.07,-6 1438.07,-12 1438.07,-12 1438.07,-49.2 1438.07,-49.2 1438.07,-55.2 1432.07,-61.2 1426.07,-61.2"/>
<text xml:space="preserve" text-anchor="middle" x="1381.32" y="-40.5" font-family="Arial" font-size="11.00" fill="white">GLOBAL</text>
<text xml:space="preserve" text-anchor="middle" x="1381.32" y="-27.3" font-family="Arial" font-size="11.00" fill="white">BUILDING DB</text>
<text xml:space="preserve" text-anchor="middle" x="1381.32" y="-14.1" font-family="Arial" font-size="11.00" fill="white">All Buildings</text>
</g>
<!-- BUILDINGS&#45;&gt;GLOBAL_DB -->
<g id="edge18" class="edge">
<title>BUILDINGS&#45;&gt;GLOBAL_DB</title>
<path fill="none" stroke="#64748b" stroke-width="1.5" d="M1361.57,-572.5C1361.57,-572.5 1361.57,-70.22 1361.57,-70.22"/>
<polygon fill="#64748b" stroke="#64748b" stroke-width="1.5" points="1364.02,-70.22 1361.57,-63.22 1359.12,-70.22 1364.02,-70.22"/>
</g>
<!-- RESIDENTS -->
<g id="node3" class="node">
<title>RESIDENTS</title>
<path fill="#ec4899" stroke="black" stroke-width="0" d="M1603.55,-640.2C1603.55,-640.2 1517.1,-640.2 1517.1,-640.2 1511.1,-640.2 1505.1,-634.2 1505.1,-628.2 1505.1,-628.2 1505.1,-591 1505.1,-591 1505.1,-585 1511.1,-579 1517.1,-579 1517.1,-579 1603.55,-579 1603.55,-579 1609.55,-579 1615.55,-585 1615.55,-591 1615.55,-591 1615.55,-628.2 1615.55,-628.2 1615.55,-634.2 1609.55,-640.2 1603.55,-640.2"/>
<text xml:space="preserve" text-anchor="middle" x="1560.32" y="-619.5" font-family="Arial" font-size="11.00" fill="white">RESIDENTS</text>
<text xml:space="preserve" text-anchor="middle" x="1560.32" y="-606.3" font-family="Arial" font-size="11.00" fill="white">Portal Access</text>
<text xml:space="preserve" text-anchor="middle" x="1560.32" y="-593.1" font-family="Arial" font-size="11.00" fill="white">Unit Links</text>
</g>
<!-- COMPLAINTS -->
<g id="node23" class="node">
<title>COMPLAINTS</title>
<path fill="#f43f5e" stroke="black" stroke-width="0" d="M1605.68,-201C1605.68,-201 1514.97,-201 1514.97,-201 1508.97,-201 1502.97,-195 1502.97,-189 1502.97,-189 1502.97,-151.8 1502.97,-151.8 1502.97,-145.8 1508.97,-139.8 1514.97,-139.8 1514.97,-139.8 1605.68,-139.8 1605.68,-139.8 1611.68,-139.8 1617.68,-145.8 1617.68,-151.8 1617.68,-151.8 1617.68,-189 1617.68,-189 1617.68,-195 1611.68,-201 1605.68,-201"/>
<text xml:space="preserve" text-anchor="middle" x="1560.32" y="-180.3" font-family="Arial" font-size="11.00" fill="white">COMPLAINTS</text>
<text xml:space="preserve" text-anchor="middle" x="1560.32" y="-167.1" font-family="Arial" font-size="11.00" fill="white">Submissions</text>
<text xml:space="preserve" text-anchor="middle" x="1560.32" y="-153.9" font-family="Arial" font-size="11.00" fill="white">Responses</text>
</g>
<!-- RESIDENTS&#45;&gt;COMPLAINTS -->
<g id="edge15" class="edge">
<title>RESIDENTS&#45;&gt;COMPLAINTS</title>
<path fill="none" stroke="#f43f5e" stroke-width="1.5" d="M1560.32,-579.07C1560.32,-579.07 1560.32,-210 1560.32,-210"/>
<polygon fill="#f43f5e" stroke="#f43f5e" stroke-width="1.5" points="1562.77,-210 1560.32,-203 1557.87,-210 1562.77,-210"/>
</g>
<!-- TECHNICIANS -->
<g id="node4" class="node">
<title>TECHNICIANS</title>
<path fill="#06b6d4" stroke="black" stroke-width="0" d="M513.26,-646.8C513.26,-646.8 383.39,-646.8 383.39,-646.8 377.39,-646.8 371.39,-640.8 371.39,-634.8 371.39,-634.8 371.39,-584.4 371.39,-584.4 371.39,-578.4 377.39,-572.4 383.39,-572.4 383.39,-572.4 513.26,-572.4 513.26,-572.4 519.26,-572.4 525.26,-578.4 525.26,-584.4 525.26,-584.4 525.26,-634.8 525.26,-634.8 525.26,-640.8 519.26,-646.8 513.26,-646.8"/>
<text xml:space="preserve" text-anchor="middle" x="448.32" y="-626.1" font-family="Arial" font-size="11.00" fill="white">TECHNICIANS</text>
<text xml:space="preserve" text-anchor="middle" x="448.32" y="-612.9" font-family="Arial" font-size="11.00" fill="white">IRATA/SPRAT Certs</text>
<text xml:space="preserve" text-anchor="middle" x="448.32" y="-599.7" font-family="Arial" font-size="11.00" fill="white">Profiles &amp; Resumes</text>
<text xml:space="preserve" text-anchor="middle" x="448.32" y="-586.5" font-family="Arial" font-size="11.00" fill="white">Employer Connections</text>
</g>
<!-- EMPLOYEES -->
<g id="node9" class="node">
<title>EMPLOYEES</title>
<path fill="#06b6d4" stroke="black" stroke-width="0" d="M508.66,-493.8C508.66,-493.8 387.99,-493.8 387.99,-493.8 381.99,-493.8 375.99,-487.8 375.99,-481.8 375.99,-481.8 375.99,-444.6 375.99,-444.6 375.99,-438.6 381.99,-432.6 387.99,-432.6 387.99,-432.6 508.66,-432.6 508.66,-432.6 514.66,-432.6 520.66,-438.6 520.66,-444.6 520.66,-444.6 520.66,-481.8 520.66,-481.8 520.66,-487.8 514.66,-493.8 508.66,-493.8"/>
<text xml:space="preserve" text-anchor="middle" x="448.32" y="-473.1" font-family="Arial" font-size="11.00" fill="white">EMPLOYEES</text>
<text xml:space="preserve" text-anchor="middle" x="448.32" y="-459.9" font-family="Arial" font-size="11.00" fill="white">Roles &amp; Permissions</text>
<text xml:space="preserve" text-anchor="middle" x="448.32" y="-446.7" font-family="Arial" font-size="11.00" fill="white">Referral Tracking</text>
</g>
<!-- TECHNICIANS&#45;&gt;EMPLOYEES -->
<g id="edge3" class="edge">
<title>TECHNICIANS&#45;&gt;EMPLOYEES</title>
<path fill="none" stroke="#06b6d4" stroke-width="1.5" d="M448.32,-572.66C448.32,-572.66 448.32,-502.98 448.32,-502.98"/>
<polygon fill="#06b6d4" stroke="#06b6d4" stroke-width="1.5" points="450.77,-502.98 448.32,-495.98 445.87,-502.98 450.77,-502.98"/>
</g>
<!-- PM -->
<g id="node5" class="node">
<title>PM</title>
<path fill="#ec4899" stroke="black" stroke-width="0" d="M1782.75,-646.8C1782.75,-646.8 1685.9,-646.8 1685.9,-646.8 1679.9,-646.8 1673.9,-640.8 1673.9,-634.8 1673.9,-634.8 1673.9,-584.4 1673.9,-584.4 1673.9,-578.4 1679.9,-572.4 1685.9,-572.4 1685.9,-572.4 1782.75,-572.4 1782.75,-572.4 1788.75,-572.4 1794.75,-578.4 1794.75,-584.4 1794.75,-584.4 1794.75,-634.8 1794.75,-634.8 1794.75,-640.8 1788.75,-646.8 1782.75,-646.8"/>
<text xml:space="preserve" text-anchor="middle" x="1734.32" y="-626.1" font-family="Arial" font-size="11.00" fill="white">PROPERTY</text>
<text xml:space="preserve" text-anchor="middle" x="1734.32" y="-612.9" font-family="Arial" font-size="11.00" fill="white">MANAGERS</text>
<text xml:space="preserve" text-anchor="middle" x="1734.32" y="-599.7" font-family="Arial" font-size="11.00" fill="white">Building Access</text>
<text xml:space="preserve" text-anchor="middle" x="1734.32" y="-586.5" font-family="Arial" font-size="11.00" fill="white">Vendor Views</text>
</g>
<!-- SCHEDULING -->
<g id="node6" class="node">
<title>SCHEDULING</title>
<path fill="#3b82f6" stroke="black" stroke-width="0" d="M736.03,-207.6C736.03,-207.6 630.62,-207.6 630.62,-207.6 624.62,-207.6 618.62,-201.6 618.62,-195.6 618.62,-195.6 618.62,-145.2 618.62,-145.2 618.62,-139.2 624.62,-133.2 630.62,-133.2 630.62,-133.2 736.03,-133.2 736.03,-133.2 742.03,-133.2 748.03,-139.2 748.03,-145.2 748.03,-145.2 748.03,-195.6 748.03,-195.6 748.03,-201.6 742.03,-207.6 736.03,-207.6"/>
<text xml:space="preserve" text-anchor="middle" x="683.32" y="-186.9" font-family="Arial" font-size="11.00" fill="white">SCHEDULING</text>
<text xml:space="preserve" text-anchor="middle" x="683.32" y="-173.7" font-family="Arial" font-size="11.00" fill="white">Calendars</text>
<text xml:space="preserve" text-anchor="middle" x="683.32" y="-160.5" font-family="Arial" font-size="11.00" fill="white">Job Assignments</text>
<text xml:space="preserve" text-anchor="middle" x="683.32" y="-147.3" font-family="Arial" font-size="11.00" fill="white">Conflict Detection</text>
</g>
<!-- WORK_SESSIONS -->
<g id="node8" class="node">
<title>WORK_SESSIONS</title>
<path fill="#3b82f6" stroke="black" stroke-width="0" d="M410.68,-354C410.68,-354 297.97,-354 297.97,-354 291.97,-354 285.97,-348 285.97,-342 285.97,-342 285.97,-291.6 285.97,-291.6 285.97,-285.6 291.97,-279.6 297.97,-279.6 297.97,-279.6 410.68,-279.6 410.68,-279.6 416.68,-279.6 422.68,-285.6 422.68,-291.6 422.68,-291.6 422.68,-342 422.68,-342 422.68,-348 416.68,-354 410.68,-354"/>
<text xml:space="preserve" text-anchor="middle" x="354.32" y="-333.3" font-family="Arial" font-size="11.00" fill="white">WORK SESSIONS</text>
<text xml:space="preserve" text-anchor="middle" x="354.32" y="-320.1" font-family="Arial" font-size="11.00" fill="white">Clock In/Out</text>
<text xml:space="preserve" text-anchor="middle" x="354.32" y="-306.9" font-family="Arial" font-size="11.00" fill="white">GPS Tracking</text>
<text xml:space="preserve" text-anchor="middle" x="354.32" y="-293.7" font-family="Arial" font-size="11.00" fill="white">Drop Logs</text>
</g>
<!-- SCHEDULING&#45;&gt;WORK_SESSIONS -->
<g id="edge5" class="edge">
<title>SCHEDULING&#45;&gt;WORK_SESSIONS</title>
<path fill="none" stroke="#3b82f6" stroke-width="1.5" d="M661.76,-207.2C661.76,-225.6 661.76,-244 661.76,-244 661.76,-244 412.5,-244 412.5,-244 412.5,-244 412.5,-270.7 412.5,-270.7"/>
<polygon fill="#3b82f6" stroke="#3b82f6" stroke-width="1.5" points="410.05,-270.7 412.5,-277.7 414.95,-270.7 410.05,-270.7"/>
</g>
<!-- PROJECTS&#45;&gt;SCHEDULING -->
<g id="edge4" class="edge">
<title>PROJECTS&#45;&gt;SCHEDULING</title>
<path fill="none" stroke="#3b82f6" stroke-width="1.5" d="M976.82,-317C876.99,-317 704.89,-317 704.89,-317 704.89,-317 704.89,-216.66 704.89,-216.66"/>
<polygon fill="#3b82f6" stroke="#3b82f6" stroke-width="1.5" points="707.34,-216.66 704.89,-209.66 702.44,-216.66 707.34,-216.66"/>
</g>
<!-- FLHA -->
<g id="node13" class="node">
<title>FLHA</title>
<path fill="#f59e0b" stroke="black" stroke-width="0" d="M916.66,-201C916.66,-201 817.99,-201 817.99,-201 811.99,-201 805.99,-195 805.99,-189 805.99,-189 805.99,-151.8 805.99,-151.8 805.99,-145.8 811.99,-139.8 817.99,-139.8 817.99,-139.8 916.66,-139.8 916.66,-139.8 922.66,-139.8 928.66,-145.8 928.66,-151.8 928.66,-151.8 928.66,-189 928.66,-189 928.66,-195 922.66,-201 916.66,-201"/>
<text xml:space="preserve" text-anchor="middle" x="867.32" y="-180.3" font-family="Arial" font-size="11.00" fill="white">FLHA FORMS</text>
<text xml:space="preserve" text-anchor="middle" x="867.32" y="-167.1" font-family="Arial" font-size="11.00" fill="white">Hazard Analysis</text>
<text xml:space="preserve" text-anchor="middle" x="867.32" y="-153.9" font-family="Arial" font-size="11.00" fill="white">Signatures</text>
</g>
<!-- PROJECTS&#45;&gt;FLHA -->
<g id="edge9" class="edge">
<title>PROJECTS&#45;&gt;FLHA</title>
<path fill="none" stroke="#f59e0b" stroke-width="1.5" d="M981.62,-279.76C981.62,-236.27 981.62,-170 981.62,-170 981.62,-170 937.76,-170 937.76,-170"/>
<polygon fill="#f59e0b" stroke="#f59e0b" stroke-width="1.5" points="937.76,-167.55 930.76,-170 937.76,-172.45 937.76,-167.55"/>
</g>
<!-- QUOTES -->
<g id="node19" class="node">
<title>QUOTES</title>
<path fill="#10b981" stroke="black" stroke-width="0" d="M1093.83,-201C1093.83,-201 998.82,-201 998.82,-201 992.82,-201 986.82,-195 986.82,-189 986.82,-189 986.82,-151.8 986.82,-151.8 986.82,-145.8 992.82,-139.8 998.82,-139.8 998.82,-139.8 1093.83,-139.8 1093.83,-139.8 1099.83,-139.8 1105.83,-145.8 1105.83,-151.8 1105.83,-151.8 1105.83,-189 1105.83,-189 1105.83,-195 1099.83,-201 1093.83,-201"/>
<text xml:space="preserve" text-anchor="middle" x="1046.32" y="-180.3" font-family="Arial" font-size="11.00" fill="white">QUOTES</text>
<text xml:space="preserve" text-anchor="middle" x="1046.32" y="-167.1" font-family="Arial" font-size="11.00" fill="white">Labor Costs</text>
<text xml:space="preserve" text-anchor="middle" x="1046.32" y="-153.9" font-family="Arial" font-size="11.00" fill="white">Tax Calculation</text>
</g>
<!-- PROJECTS&#45;&gt;QUOTES -->
<g id="edge12" class="edge">
<title>PROJECTS&#45;&gt;QUOTES</title>
<path fill="none" stroke="#10b981" stroke-width="1.5" d="M1046.32,-279.86C1046.32,-279.86 1046.32,-210.18 1046.32,-210.18"/>
<polygon fill="#10b981" stroke="#10b981" stroke-width="1.5" points="1048.77,-210.18 1046.32,-203.18 1043.87,-210.18 1048.77,-210.18"/>
</g>
<!-- NOTICES -->
<g id="node22" class="node">
<title>NOTICES</title>
<path fill="#f43f5e" stroke="black" stroke-width="0" d="M1281.01,-201C1281.01,-201 1175.64,-201 1175.64,-201 1169.64,-201 1163.64,-195 1163.64,-189 1163.64,-189 1163.64,-151.8 1163.64,-151.8 1163.64,-145.8 1169.64,-139.8 1175.64,-139.8 1175.64,-139.8 1281.01,-139.8 1281.01,-139.8 1287.01,-139.8 1293.01,-145.8 1293.01,-151.8 1293.01,-151.8 1293.01,-189 1293.01,-189 1293.01,-195 1287.01,-201 1281.01,-201"/>
<text xml:space="preserve" text-anchor="middle" x="1228.32" y="-180.3" font-family="Arial" font-size="11.00" fill="white">WORK NOTICES</text>
<text xml:space="preserve" text-anchor="middle" x="1228.32" y="-167.1" font-family="Arial" font-size="11.00" fill="white">Resident Alerts</text>
<text xml:space="preserve" text-anchor="middle" x="1228.32" y="-153.9" font-family="Arial" font-size="11.00" fill="white">White Label</text>
</g>
<!-- PROJECTS&#45;&gt;NOTICES -->
<g id="edge14" class="edge">
<title>PROJECTS&#45;&gt;NOTICES</title>
<path fill="none" stroke="#f43f5e" stroke-width="1.5" d="M1111.03,-279.76C1111.03,-236.27 1111.03,-170 1111.03,-170 1111.03,-170 1154.57,-170 1154.57,-170"/>
<polygon fill="#f43f5e" stroke="#f43f5e" stroke-width="1.5" points="1154.57,-172.45 1161.57,-170 1154.57,-167.55 1154.57,-172.45"/>
</g>
<!-- HARNESS -->
<g id="node11" class="node">
<title>HARNESS</title>
<path fill="#f59e0b" stroke="black" stroke-width="0" d="M548.21,-207.6C548.21,-207.6 454.44,-207.6 454.44,-207.6 448.44,-207.6 442.44,-201.6 442.44,-195.6 442.44,-195.6 442.44,-145.2 442.44,-145.2 442.44,-139.2 448.44,-133.2 454.44,-133.2 454.44,-133.2 548.21,-133.2 548.21,-133.2 554.21,-133.2 560.21,-139.2 560.21,-145.2 560.21,-145.2 560.21,-195.6 560.21,-195.6 560.21,-201.6 554.21,-207.6 548.21,-207.6"/>
<text xml:space="preserve" text-anchor="middle" x="501.32" y="-186.9" font-family="Arial" font-size="11.00" fill="white">HARNESS</text>
<text xml:space="preserve" text-anchor="middle" x="501.32" y="-173.7" font-family="Arial" font-size="11.00" fill="white">INSPECTIONS</text>
<text xml:space="preserve" text-anchor="middle" x="501.32" y="-160.5" font-family="Arial" font-size="11.00" fill="white">Daily Checks</text>
<text xml:space="preserve" text-anchor="middle" x="501.32" y="-147.3" font-family="Arial" font-size="11.00" fill="white">Expirations</text>
</g>
<!-- WORK_SESSIONS&#45;&gt;HARNESS -->
<g id="edge7" class="edge">
<title>WORK_SESSIONS&#45;&gt;HARNESS</title>
<path fill="none" stroke="#f59e0b" stroke-width="1.5" d="M417.59,-279.69C417.59,-239.48 417.59,-181 417.59,-181 417.59,-181 433.44,-181 433.44,-181"/>
<polygon fill="#f59e0b" stroke="#f59e0b" stroke-width="1.5" points="433.44,-183.45 440.44,-181 433.44,-178.55 433.44,-183.45"/>
</g>
<!-- TOOLBOX -->
<g id="node12" class="node">
<title>TOOLBOX</title>
<path fill="#f59e0b" stroke="black" stroke-width="0" d="M88.65,-207.6C88.65,-207.6 12,-207.6 12,-207.6 6,-207.6 0,-201.6 0,-195.6 0,-195.6 0,-145.2 0,-145.2 0,-139.2 6,-133.2 12,-133.2 12,-133.2 88.65,-133.2 88.65,-133.2 94.65,-133.2 100.65,-139.2 100.65,-145.2 100.65,-145.2 100.65,-195.6 100.65,-195.6 100.65,-201.6 94.65,-207.6 88.65,-207.6"/>
<text xml:space="preserve" text-anchor="middle" x="50.32" y="-186.9" font-family="Arial" font-size="11.00" fill="white">TOOLBOX</text>
<text xml:space="preserve" text-anchor="middle" x="50.32" y="-173.7" font-family="Arial" font-size="11.00" fill="white">MEETINGS</text>
<text xml:space="preserve" text-anchor="middle" x="50.32" y="-160.5" font-family="Arial" font-size="11.00" fill="white">Attendance</text>
<text xml:space="preserve" text-anchor="middle" x="50.32" y="-147.3" font-family="Arial" font-size="11.00" fill="white">Topics</text>
</g>
<!-- WORK_SESSIONS&#45;&gt;TOOLBOX -->
<g id="edge8" class="edge">
<title>WORK_SESSIONS&#45;&gt;TOOLBOX</title>
<path fill="none" stroke="#f59e0b" stroke-width="1.5" d="M286.1,-317C196.47,-317 50.32,-317 50.32,-317 50.32,-317 50.32,-216.66 50.32,-216.66"/>
<polygon fill="#f59e0b" stroke="#f59e0b" stroke-width="1.5" points="52.77,-216.66 50.32,-209.66 47.87,-216.66 52.77,-216.66"/>
</g>
<!-- PAYROLL -->
<g id="node21" class="node">
<title>PAYROLL</title>
<path fill="#10b981" stroke="black" stroke-width="0" d="M254.02,-201C254.02,-201 170.63,-201 170.63,-201 164.63,-201 158.63,-195 158.63,-189 158.63,-189 158.63,-151.8 158.63,-151.8 158.63,-145.8 164.63,-139.8 170.63,-139.8 170.63,-139.8 254.02,-139.8 254.02,-139.8 260.02,-139.8 266.02,-145.8 266.02,-151.8 266.02,-151.8 266.02,-189 266.02,-189 266.02,-195 260.02,-201 254.02,-201"/>
<text xml:space="preserve" text-anchor="middle" x="212.32" y="-180.3" font-family="Arial" font-size="11.00" fill="white">PAYROLL</text>
<text xml:space="preserve" text-anchor="middle" x="212.32" y="-167.1" font-family="Arial" font-size="11.00" fill="white">Hours Export</text>
<text xml:space="preserve" text-anchor="middle" x="212.32" y="-153.9" font-family="Arial" font-size="11.00" fill="white">Adjustments</text>
</g>
<!-- WORK_SESSIONS&#45;&gt;PAYROLL -->
<g id="edge13" class="edge">
<title>WORK_SESSIONS&#45;&gt;PAYROLL</title>
<path fill="none" stroke="#10b981" stroke-width="1.5" d="M293.6,-279.64C293.6,-233.27 293.6,-160 293.6,-160 293.6,-160 274.9,-160 274.9,-160"/>
<polygon fill="#10b981" stroke="#10b981" stroke-width="1.5" points="274.9,-157.55 267.9,-160 274.9,-162.45 274.9,-157.55"/>
</g>
<!-- ANALYTICS -->
<g id="node25" class="node">
<title>ANALYTICS</title>
<path fill="#64748b" stroke="black" stroke-width="0" d="M395.41,-61.2C395.41,-61.2 313.24,-61.2 313.24,-61.2 307.24,-61.2 301.24,-55.2 301.24,-49.2 301.24,-49.2 301.24,-12 301.24,-12 301.24,-6 307.24,0 313.24,0 313.24,0 395.41,0 395.41,0 401.41,0 407.41,-6 407.41,-12 407.41,-12 407.41,-49.2 407.41,-49.2 407.41,-55.2 401.41,-61.2 395.41,-61.2"/>
<text xml:space="preserve" text-anchor="middle" x="354.32" y="-40.5" font-family="Arial" font-size="11.00" fill="white">ANALYTICS</text>
<text xml:space="preserve" text-anchor="middle" x="354.32" y="-27.3" font-family="Arial" font-size="11.00" fill="white">Performance</text>
<text xml:space="preserve" text-anchor="middle" x="354.32" y="-14.1" font-family="Arial" font-size="11.00" fill="white">PSR Scores</text>
</g>
<!-- WORK_SESSIONS&#45;&gt;ANALYTICS -->
<g id="edge16" class="edge">
<title>WORK_SESSIONS&#45;&gt;ANALYTICS</title>
<path fill="none" stroke="#64748b" stroke-width="1.5" d="M354.32,-279.68C354.32,-279.68 354.32,-70.37 354.32,-70.37"/>
<polygon fill="#64748b" stroke="#64748b" stroke-width="1.5" points="356.77,-70.37 354.32,-63.37 351.87,-70.37 356.77,-70.37"/>
</g>
<!-- EMPLOYEES&#45;&gt;WORK_SESSIONS -->
<g id="edge6" class="edge">
<title>EMPLOYEES&#45;&gt;WORK_SESSIONS</title>
<path fill="none" stroke="#06b6d4" stroke-width="1.5" d="M399.33,-432.87C399.33,-432.87 399.33,-363.12 399.33,-363.12"/>
<polygon fill="#06b6d4" stroke="#06b6d4" stroke-width="1.5" points="401.78,-363.12 399.33,-356.12 396.88,-363.12 401.78,-363.12"/>
</g>
<!-- ASSIGNMENTS -->
<g id="node16" class="node">
<title>ASSIGNMENTS</title>
<path fill="#8b5cf6" stroke="black" stroke-width="0" d="M591.96,-347.4C591.96,-347.4 492.69,-347.4 492.69,-347.4 486.69,-347.4 480.69,-341.4 480.69,-335.4 480.69,-335.4 480.69,-298.2 480.69,-298.2 480.69,-292.2 486.69,-286.2 492.69,-286.2 492.69,-286.2 591.96,-286.2 591.96,-286.2 597.96,-286.2 603.96,-292.2 603.96,-298.2 603.96,-298.2 603.96,-335.4 603.96,-335.4 603.96,-341.4 597.96,-347.4 591.96,-347.4"/>
<text xml:space="preserve" text-anchor="middle" x="542.32" y="-326.7" font-family="Arial" font-size="11.00" fill="white">GEAR</text>
<text xml:space="preserve" text-anchor="middle" x="542.32" y="-313.5" font-family="Arial" font-size="11.00" fill="white">ASSIGNMENTS</text>
<text xml:space="preserve" text-anchor="middle" x="542.32" y="-300.3" font-family="Arial" font-size="11.00" fill="white">Employee Gear</text>
</g>
<!-- EMPLOYEES&#45;&gt;ASSIGNMENTS -->
<g id="edge10" class="edge">
<title>EMPLOYEES&#45;&gt;ASSIGNMENTS</title>
<path fill="none" stroke="#8b5cf6" stroke-width="1.5" d="M500.68,-432.87C500.68,-432.87 500.68,-356.62 500.68,-356.62"/>
<polygon fill="#8b5cf6" stroke="#8b5cf6" stroke-width="1.5" points="503.13,-356.62 500.68,-349.62 498.23,-356.62 503.13,-356.62"/>
</g>
<!-- JOB_BOARD -->
<g id="node10" class="node">
<title>JOB_BOARD</title>
<path fill="#06b6d4" stroke="black" stroke-width="0" d="M1750.08,-500.4C1750.08,-500.4 1660.57,-500.4 1660.57,-500.4 1654.57,-500.4 1648.57,-494.4 1648.57,-488.4 1648.57,-488.4 1648.57,-438 1648.57,-438 1648.57,-432 1654.57,-426 1660.57,-426 1660.57,-426 1750.08,-426 1750.08,-426 1756.08,-426 1762.08,-432 1762.08,-438 1762.08,-438 1762.08,-488.4 1762.08,-488.4 1762.08,-494.4 1756.08,-500.4 1750.08,-500.4"/>
<text xml:space="preserve" text-anchor="middle" x="1705.32" y="-479.7" font-family="Arial" font-size="11.00" fill="white">JOB BOARD</text>
<text xml:space="preserve" text-anchor="middle" x="1705.32" y="-466.5" font-family="Arial" font-size="11.00" fill="white">Postings</text>
<text xml:space="preserve" text-anchor="middle" x="1705.32" y="-453.3" font-family="Arial" font-size="11.00" fill="white">Applications</text>
<text xml:space="preserve" text-anchor="middle" x="1705.32" y="-440.1" font-family="Arial" font-size="11.00" fill="white">Talent Browse</text>
</g>
<!-- INCIDENTS -->
<g id="node14" class="node">
<title>INCIDENTS</title>
<path fill="#f59e0b" stroke="black" stroke-width="0" d="M1777.08,-201C1777.08,-201 1687.57,-201 1687.57,-201 1681.57,-201 1675.57,-195 1675.57,-189 1675.57,-189 1675.57,-151.8 1675.57,-151.8 1675.57,-145.8 1681.57,-139.8 1687.57,-139.8 1687.57,-139.8 1777.08,-139.8 1777.08,-139.8 1783.08,-139.8 1789.08,-145.8 1789.08,-151.8 1789.08,-151.8 1789.08,-189 1789.08,-189 1789.08,-195 1783.08,-201 1777.08,-201"/>
<text xml:space="preserve" text-anchor="middle" x="1732.32" y="-180.3" font-family="Arial" font-size="11.00" fill="white">INCIDENTS</text>
<text xml:space="preserve" text-anchor="middle" x="1732.32" y="-167.1" font-family="Arial" font-size="11.00" fill="white">Reports</text>
<text xml:space="preserve" text-anchor="middle" x="1732.32" y="-153.9" font-family="Arial" font-size="11.00" fill="white">Classifications</text>
</g>
<!-- SAFETY_RATING -->
<g id="node26" class="node">
<title>SAFETY_RATING</title>
<path fill="#64748b" stroke="black" stroke-width="0" d="M1772.79,-61.2C1772.79,-61.2 1691.86,-61.2 1691.86,-61.2 1685.86,-61.2 1679.86,-55.2 1679.86,-49.2 1679.86,-49.2 1679.86,-12 1679.86,-12 1679.86,-6 1685.86,0 1691.86,0 1691.86,0 1772.79,0 1772.79,0 1778.79,0 1784.79,-6 1784.79,-12 1784.79,-12 1784.79,-49.2 1784.79,-49.2 1784.79,-55.2 1778.79,-61.2 1772.79,-61.2"/>
<text xml:space="preserve" text-anchor="middle" x="1732.32" y="-40.5" font-family="Arial" font-size="11.00" fill="white">SAFETY</text>
<text xml:space="preserve" text-anchor="middle" x="1732.32" y="-27.3" font-family="Arial" font-size="11.00" fill="white">RATING</text>
<text xml:space="preserve" text-anchor="middle" x="1732.32" y="-14.1" font-family="Arial" font-size="11.00" fill="white">CSR Metrics</text>
</g>
<!-- INCIDENTS&#45;&gt;SAFETY_RATING -->
<g id="edge17" class="edge">
<title>INCIDENTS&#45;&gt;SAFETY_RATING</title>
<path fill="none" stroke="#64748b" stroke-width="1.5" d="M1732.32,-140.07C1732.32,-140.07 1732.32,-70.15 1732.32,-70.15"/>
<polygon fill="#64748b" stroke="#64748b" stroke-width="1.5" points="1734.77,-70.15 1732.32,-63.15 1729.87,-70.15 1734.77,-70.15"/>
</g>
<!-- GEAR -->
<g id="node15" class="node">
<title>GEAR</title>
<path fill="#8b5cf6" stroke="black" stroke-width="0" d="M1778.44,-347.4C1778.44,-347.4 1660.21,-347.4 1660.21,-347.4 1654.21,-347.4 1648.21,-341.4 1648.21,-335.4 1648.21,-335.4 1648.21,-298.2 1648.21,-298.2 1648.21,-292.2 1654.21,-286.2 1660.21,-286.2 1660.21,-286.2 1778.44,-286.2 1778.44,-286.2 1784.44,-286.2 1790.44,-292.2 1790.44,-298.2 1790.44,-298.2 1790.44,-335.4 1790.44,-335.4 1790.44,-341.4 1784.44,-347.4 1778.44,-347.4"/>
<text xml:space="preserve" text-anchor="middle" x="1719.32" y="-326.7" font-family="Arial" font-size="11.00" fill="white">GEAR ITEMS</text>
<text xml:space="preserve" text-anchor="middle" x="1719.32" y="-313.5" font-family="Arial" font-size="11.00" fill="white">Serial Numbers</text>
<text xml:space="preserve" text-anchor="middle" x="1719.32" y="-300.3" font-family="Arial" font-size="11.00" fill="white">Retirement Tracking</text>
</g>
<!-- DAMAGE -->
<g id="node17" class="node">
<title>DAMAGE</title>
<path fill="#8b5cf6" stroke="black" stroke-width="0" d="M1933.82,-347.4C1933.82,-347.4 1860.83,-347.4 1860.83,-347.4 1854.83,-347.4 1848.83,-341.4 1848.83,-335.4 1848.83,-335.4 1848.83,-298.2 1848.83,-298.2 1848.83,-292.2 1854.83,-286.2 1860.83,-286.2 1860.83,-286.2 1933.82,-286.2 1933.82,-286.2 1939.82,-286.2 1945.82,-292.2 1945.82,-298.2 1945.82,-298.2 1945.82,-335.4 1945.82,-335.4 1945.82,-341.4 1939.82,-347.4 1933.82,-347.4"/>
<text xml:space="preserve" text-anchor="middle" x="1897.32" y="-326.7" font-family="Arial" font-size="11.00" fill="white">DAMAGE</text>
<text xml:space="preserve" text-anchor="middle" x="1897.32" y="-313.5" font-family="Arial" font-size="11.00" fill="white">REPORTS</text>
<text xml:space="preserve" text-anchor="middle" x="1897.32" y="-300.3" font-family="Arial" font-size="11.00" fill="white">Retirement</text>
</g>
<!-- GEAR&#45;&gt;DAMAGE -->
<g id="edge11" class="edge">
<title>GEAR&#45;&gt;DAMAGE</title>
<path fill="none" stroke="#8b5cf6" stroke-width="1.5" d="M1790.19,-317C1790.19,-317 1839.59,-317 1839.59,-317"/>
<polygon fill="#8b5cf6" stroke="#8b5cf6" stroke-width="1.5" points="1839.59,-319.45 1846.59,-317 1839.59,-314.55 1839.59,-319.45"/>
</g>
<!-- CATALOG -->
<g id="node18" class="node">
<title>CATALOG</title>
<path fill="#8b5cf6" stroke="black" stroke-width="0" d="M2101.24,-347.4C2101.24,-347.4 2015.41,-347.4 2015.41,-347.4 2009.41,-347.4 2003.41,-341.4 2003.41,-335.4 2003.41,-335.4 2003.41,-298.2 2003.41,-298.2 2003.41,-292.2 2009.41,-286.2 2015.41,-286.2 2015.41,-286.2 2101.24,-286.2 2101.24,-286.2 2107.24,-286.2 2113.24,-292.2 2113.24,-298.2 2113.24,-298.2 2113.24,-335.4 2113.24,-335.4 2113.24,-341.4 2107.24,-347.4 2101.24,-347.4"/>
<text xml:space="preserve" text-anchor="middle" x="2058.32" y="-326.7" font-family="Arial" font-size="11.00" fill="white">EQUIPMENT</text>
<text xml:space="preserve" text-anchor="middle" x="2058.32" y="-313.5" font-family="Arial" font-size="11.00" fill="white">CATALOG</text>
<text xml:space="preserve" text-anchor="middle" x="2058.32" y="-300.3" font-family="Arial" font-size="11.00" fill="white">Industry Gear</text>
</g>
<!-- BILLING -->
<g id="node20" class="node">
<title>BILLING</title>
<path fill="#10b981" stroke="black" stroke-width="0" d="M1943.94,-201C1943.94,-201 1858.71,-201 1858.71,-201 1852.71,-201 1846.71,-195 1846.71,-189 1846.71,-189 1846.71,-151.8 1846.71,-151.8 1846.71,-145.8 1852.71,-139.8 1858.71,-139.8 1858.71,-139.8 1943.94,-139.8 1943.94,-139.8 1949.94,-139.8 1955.94,-145.8 1955.94,-151.8 1955.94,-151.8 1955.94,-189 1955.94,-189 1955.94,-195 1949.94,-201 1943.94,-201"/>
<text xml:space="preserve" text-anchor="middle" x="1901.32" y="-180.3" font-family="Arial" font-size="11.00" fill="white">BILLING</text>
<text xml:space="preserve" text-anchor="middle" x="1901.32" y="-167.1" font-family="Arial" font-size="11.00" fill="white">Stripe</text>
<text xml:space="preserve" text-anchor="middle" x="1901.32" y="-153.9" font-family="Arial" font-size="11.00" fill="white">Subscriptions</text>
</g>
<!-- NOTIFICATIONS -->
<g id="node24" class="node">
<title>NOTIFICATIONS</title>
<path fill="#f43f5e" stroke="black" stroke-width="0" d="M2130.4,-201C2130.4,-201 2026.25,-201 2026.25,-201 2020.25,-201 2014.25,-195 2014.25,-189 2014.25,-189 2014.25,-151.8 2014.25,-151.8 2014.25,-145.8 2020.25,-139.8 2026.25,-139.8 2026.25,-139.8 2130.4,-139.8 2130.4,-139.8 2136.4,-139.8 2142.4,-145.8 2142.4,-151.8 2142.4,-151.8 2142.4,-189 2142.4,-189 2142.4,-195 2136.4,-201 2130.4,-201"/>
<text xml:space="preserve" text-anchor="middle" x="2078.32" y="-180.3" font-family="Arial" font-size="11.00" fill="white">SYSTEM</text>
<text xml:space="preserve" text-anchor="middle" x="2078.32" y="-167.1" font-family="Arial" font-size="11.00" fill="white">NOTIFICATIONS</text>
<text xml:space="preserve" text-anchor="middle" x="2078.32" y="-153.9" font-family="Arial" font-size="11.00" fill="white">Alerts</text>
</g>
<!-- SUPERUSER -->
<g id="node27" class="node">
<title>SUPERUSER</title>
<path fill="#64748b" stroke="black" stroke-width="0" d="M1943.78,-61.2C1943.78,-61.2 1854.87,-61.2 1854.87,-61.2 1848.87,-61.2 1842.87,-55.2 1842.87,-49.2 1842.87,-49.2 1842.87,-12 1842.87,-12 1842.87,-6 1848.87,0 1854.87,0 1854.87,0 1943.78,0 1943.78,0 1949.78,0 1955.78,-6 1955.78,-12 1955.78,-12 1955.78,-49.2 1955.78,-49.2 1955.78,-55.2 1949.78,-61.2 1943.78,-61.2"/>
<text xml:space="preserve" text-anchor="middle" x="1899.32" y="-40.5" font-family="Arial" font-size="11.00" fill="white">SUPERUSER</text>
<text xml:space="preserve" text-anchor="middle" x="1899.32" y="-27.3" font-family="Arial" font-size="11.00" fill="white">Admin Tools</text>
<text xml:space="preserve" text-anchor="middle" x="1899.32" y="-14.1" font-family="Arial" font-size="11.00" fill="white">Impersonation</text>
</g>
<!-- WHITE_LABEL -->
<g id="node29" class="node">
<title>WHITE_LABEL</title>
<path fill="#64748b" stroke="black" stroke-width="0" d="M2120.53,-61.2C2120.53,-61.2 2026.12,-61.2 2026.12,-61.2 2020.12,-61.2 2014.12,-55.2 2014.12,-49.2 2014.12,-49.2 2014.12,-12 2014.12,-12 2014.12,-6 2020.12,0 2026.12,0 2026.12,0 2120.53,0 2120.53,0 2126.53,0 2132.53,-6 2132.53,-12 2132.53,-12 2132.53,-49.2 2132.53,-49.2 2132.53,-55.2 2126.53,-61.2 2120.53,-61.2"/>
<text xml:space="preserve" text-anchor="middle" x="2073.32" y="-40.5" font-family="Arial" font-size="11.00" fill="white">WHITE LABEL</text>
<text xml:space="preserve" text-anchor="middle" x="2073.32" y="-27.3" font-family="Arial" font-size="11.00" fill="white">Logos &amp; Colors</text>
<text xml:space="preserve" text-anchor="middle" x="2073.32" y="-14.1" font-family="Arial" font-size="11.00" fill="white">PWA Icons</text>
</g>
</g>
</svg>
